<?xml version="1.0" standalone="no"?>
<!DOCTYPE svg PUBLIC "-//W3C//DTD SVG 20010904//EN"
 "http://www.w3.org/TR/2001/REC-SVG-20010904/DTD/svg10.dtd">
<svg version="1.0" xmlns="http://www.w3.org/2000/svg"
 width="249.000000pt" height="249.000000pt" viewBox="0 0 249.000000 249.000000"
 preserveAspectRatio="xMidYMid meet">
<metadata>
Created by potrace 1.11, written by Peter Selinger 2001-2013
</metadata>
<g transform="translate(0.000000,249.000000) scale(0.100000,-0.100000)"
fill="#000000" stroke="none">
<path d="M1147 2473 c4 -10 34 -63 66 -118 33 -55 70 -120 84 -145 74 -132
228 -397 239 -410 6 -8 22 -33 34 -55 13 -22 71 -127 130 -232 l108 -193 30
48 c16 26 109 183 206 350 l177 303 -40 48 c-86 102 -248 227 -382 293 -169
83 -336 123 -538 127 -113 2 -120 1 -114 -16z"/>
<path d="M990 2464 c-314 -68 -592 -255 -770 -519 -26 -38 -57 -89 -69 -112
l-21 -43 665 0 665 0 -17 33 c-52 97 -378 657 -383 656 -3 0 -34 -7 -70 -15z"/>
<path d="M2207 1868 c-30 -51 -110 -187 -177 -303 -67 -115 -131 -226 -143
-245 -11 -19 -38 -66 -60 -105 -22 -38 -43 -72 -47 -75 -4 -3 -40 -63 -80
-135 -40 -71 -84 -147 -97 -167 l-23 -38 27 0 c16 -1 201 -1 412 -1 l384 -1
18 47 c43 114 64 243 64 405 0 190 -25 316 -95 485 -30 72 -115 225 -125 225
-3 0 -29 -42 -58 -92z"/>
<path d="M165 1720 l-70 -5 -27 -80 c-15 -44 -27 -81 -27 -83 1 -2 -17 -103
-28 -157 -5 -29 -4 -266 2 -295 3 -14 8 -45 11 -70 17 -122 115 -371 182 -457
l25 -34 20 33 c11 18 61 105 112 193 51 88 127 221 170 295 162 279 255 442
255 444 0 2 27 50 59 107 33 57 58 105 56 107 -6 6 -662 8 -740 2z"/>
<path d="M663 1152 c-11 -20 -29 -53 -40 -72 -41 -70 -92 -159 -217 -377 -89
-154 -125 -226 -119 -236 16 -28 93 -106 166 -169 167 -142 374 -236 601 -273
101 -16 296 -20 296 -5 0 6 -42 83 -94 173 -52 89 -145 250 -207 357 -62 107
-129 227 -149 265 -54 105 -201 365 -209 370 -4 2 -17 -13 -28 -33z"/>
<path d="M1049 732 c-26 -3 -26 -4 59 -150 46 -81 96 -167 110 -192 14 -25 68
-118 119 -207 91 -156 96 -163 121 -157 230 52 342 98 497 205 142 98 256 219
354 376 56 90 69 123 49 124 -41 2 -1287 3 -1309 1z"/>
</g>
</svg>
