<svg xmlns="http://www.w3.org/2000/svg" xmlns:xlink="http://www.w3.org/1999/xlink" width="48" height="48" viewBox="0 0 48 48"><defs><style>.a,.c{fill:none;}.b{clip-path:url(#a);}.c{stroke:#333;stroke-miterlimit:10;}.d{fill:#333;}.e{stroke:none;}</style><clipPath id="a"><rect class="a" width="48" height="48"/></clipPath></defs><g transform="translate(-991 -4184)"><g class="b" transform="translate(991 4184)"><g class="c"><rect class="e" width="48" height="48" rx="24"/><rect class="a" x="0.5" y="0.5" width="47" height="47" rx="23.5"/></g></g><g transform="translate(712.616 3780.439)"><path class="d" d="M458.91,832.957a2.436,2.436,0,1,0,2.434,2.435A2.436,2.436,0,0,0,458.91,832.957Z" transform="translate(-160.546 -397.583)"/><path class="d" d="M654.662,832.957a2.436,2.436,0,1,0,2.436,2.435A2.434,2.434,0,0,0,654.662,832.957Z" transform="translate(-346.444 -397.583)"/><path class="d" d="M314.421,422.024H296.873a1.187,1.187,0,0,0-.24.094l-.011-.094s-.264-2.254-.414-3.183-1.379-1.324-5.373-3.285c-1.182-.5-2.17,1.548,0,2.679l1.825.781s.921.535,1,1.253,1.687,12.638,1.687,12.638.064,1.659,1.571,1.659h14.342a1.606,1.606,0,0,0,1.511-1.322l3-8.9S316.656,422.024,314.421,422.024Zm-2.312,5H301.185a1.1,1.1,0,0,0-.828,1.1,1.248,1.248,0,0,0,.828,1.178h10.254l-.711,2.4h-12.9l-.908-7.232h15.949Z" transform="translate(0 0)"/></g></g></svg>