<svg xmlns="http://www.w3.org/2000/svg" xmlns:xlink="http://www.w3.org/1999/xlink" width="48" height="48" viewBox="0 0 48 48"><defs><style>.a,.c{fill:none;}.b{clip-path:url(#a);}.c{stroke:#333;stroke-miterlimit:10;}.d{fill:#333;}.e{stroke:none;}</style><clipPath id="a"><rect class="a" width="48" height="48"/></clipPath></defs><g transform="translate(-1047 -4184)"><g class="b" transform="translate(1047 4184)"><g class="c"><rect class="e" width="48" height="48" rx="24"/><rect class="a" x="0.5" y="0.5" width="47" height="47" rx="23.5"/></g></g><path class="d" d="M12,24c-3.224,0-3.652-.014-4.947-.072-4.366-.2-6.78-2.615-6.98-6.98C.014,15.654,0,15.225,0,12S.014,8.344.073,7.052c.2-4.366,2.614-6.78,6.98-6.98C8.348.014,8.776,0,12,0s3.658.014,4.949.073c4.369.2,6.783,2.614,6.979,6.98C23.987,8.348,24,8.776,24,12s-.014,3.658-.073,4.948c-.2,4.365-2.611,6.779-6.979,6.98C15.654,23.987,15.225,24,12,24ZM12,2.163c-3.19,0-3.572.012-4.848.069a5.226,5.226,0,0,0-3.624,1.3A5.25,5.25,0,0,0,2.232,7.151c-.058,1.293-.07,1.677-.07,4.848,0,3.2.012,3.577.07,4.849a5.247,5.247,0,0,0,1.292,3.612,5.229,5.229,0,0,0,3.627,1.308c1.272.058,1.652.07,4.848.07s3.577-.012,4.85-.07a5.228,5.228,0,0,0,3.624-1.306,5.249,5.249,0,0,0,1.295-3.614c.056-1.259.068-1.637.068-4.849,0-3.234-.012-3.609-.068-4.848a5.245,5.245,0,0,0-1.3-3.615,5.23,5.23,0,0,0-3.624-1.3C15.577,2.175,15.2,2.163,12,2.163Zm0,16A6.162,6.162,0,1,1,18.162,12,6.169,6.169,0,0,1,12,18.163ZM12,8a4,4,0,1,0,4,4A4,4,0,0,0,12,8Zm6.406-.965A1.44,1.44,0,1,1,19.845,5.6,1.442,1.442,0,0,1,18.406,7.035Z" transform="translate(1059 4196)"/></g></svg>