<svg xmlns="http://www.w3.org/2000/svg" width="212.976" height="49.41" viewBox="0 0 212.976 49.41"><defs><style>.a{fill:#fff;stroke:#000;}</style></defs><g transform="translate(-941.629 -1561.04)"><rect class="a" width="211.976" height="48.41" rx="8" transform="translate(942.129 1561.54)"/><g transform="translate(955.906 1573.208)"><g transform="translate(109.01 0.042)"><path d="M1505.586,1649.474v-.354h-4.829v-10.6h-2.629v12.787h7.458Z" transform="translate(-1492.275 -1632.422)"/><path d="M1535.57,1662.847h2.318v-4.615a3.481,3.481,0,0,1,.054-.635c.19-.878.9-1.954,1.946-1.954a3.479,3.479,0,0,1,.76.081v-2.154a2.931,2.931,0,0,0-.6-.037,2.688,2.688,0,0,0-2.463,1.884h-.072l-.09-1.684H1535.5c.037.788.072,1.666.072,3v6.11Z" transform="translate(-1520.999 -1643.96)"/><path d="M1472.83,1614.131v21.04a1.974,1.974,0,0,0,1.974,1.974h21.04a1.973,1.973,0,0,0,1.974-1.974v-21.04a1.974,1.974,0,0,0-1.974-1.974H1474.8A1.974,1.974,0,0,0,1472.83,1614.131Zm22.7,21.622h-20.416a.9.9,0,0,1-.895-.894v-20.416a.9.9,0,0,1,.895-.894h20.416a.9.9,0,0,1,.894.894v20.416A.9.9,0,0,1,1495.531,1635.753Z" transform="translate(-1472.83 -1612.157)"/><path d="M1644.783,1622.178h-3.625v-3.625a2.1,2.1,0,0,0-2.1-2.1h-6.489v-2.194a2.1,2.1,0,0,0-2.1-2.1h-27.2a2.1,2.1,0,0,0-2.1,2.1v17.9a2.1,2.1,0,0,0,2.1,2.1h9.164l-.381,1.524h-.908a.67.67,0,1,0,0,1.34h11.453a.67.67,0,0,0,0-1.34h-.909l-.381-1.524h4.2v.762a2.1,2.1,0,0,0,2.1,2.1h17.18a2.1,2.1,0,0,0,2.1-2.1V1624.28A2.1,2.1,0,0,0,1644.783,1622.178Zm.762,2.1v8.636h-7.25v-8.636a.763.763,0,0,1,.762-.762h5.727A.762.762,0,0,1,1645.545,1624.28Zm-25.242,11.5h-6.874l.381-1.523h6.112Zm-17.038-2.863a.763.763,0,0,1-.761-.762v-.762h.761a.67.67,0,1,0,0-1.34h-.761v-15.794a.762.762,0,0,1,.761-.762h27.2a.763.763,0,0,1,.762.762v2.194H1627.6a2.1,2.1,0,0,0-2.1,2.1v11.5h-19.373a.67.67,0,0,0,0,1.34H1625.5v1.524h-22.237Zm23.576,2.1v-.762h.762a.67.67,0,1,0,0-1.34h-.762v-14.363a.763.763,0,0,1,.762-.762h11.453a.763.763,0,0,1,.762.762v3.625h-.762a2.1,2.1,0,0,0-2.1,2.1v8.636h-6.488a.67.67,0,0,0,0,1.34h6.488v.762a2.082,2.082,0,0,0,.144.762h-9.5A.763.763,0,0,1,1626.841,1635.017Zm17.942.762h-5.727a.762.762,0,0,1-.762-.762v-.762h7.25v.762A.762.762,0,0,1,1644.783,1635.779Z" transform="translate(-1571.472 -1612.157)"/></g><g transform="translate(0 0)"><path d="M1004.083,1614.1l2.3,6.489,2.286-6.489h2.421v8.947h-1.85V1620.6l.184-4.221-2.415,6.667h-1.266l-2.409-6.661.184,4.215v2.446h-1.843V1614.1Z" transform="translate(-1001.674 -1613.606)"/><path d="M1047.618,1626.885a3.944,3.944,0,0,1,.381-1.763,2.79,2.79,0,0,1,1.1-1.2,3.2,3.2,0,0,1,1.662-.424,3.028,3.028,0,0,1,2.2.823,3.3,3.3,0,0,1,.949,2.237l.012.455a3.474,3.474,0,0,1-.854,2.455,3.31,3.31,0,0,1-4.587,0,3.536,3.536,0,0,1-.857-2.507Zm1.776.126a2.484,2.484,0,0,0,.356,1.449,1.28,1.28,0,0,0,2.028.006,2.72,2.72,0,0,0,.363-1.585,2.461,2.461,0,0,0-.363-1.44,1.179,1.179,0,0,0-1.02-.511,1.16,1.16,0,0,0-1.008.508A2.765,2.765,0,0,0,1049.394,1627.011Z" transform="translate(-1036.988 -1620.833)"/><path d="M1085.558,1618.149a4.026,4.026,0,0,1-.682,2.492,2.259,2.259,0,0,1-1.9.894,2.076,2.076,0,0,1-1.727-.829l-.08.707h-1.6v-9.438h1.776v3.386a2.021,2.021,0,0,1,1.616-.719,2.277,2.277,0,0,1,1.908.894,4.031,4.031,0,0,1,.691,2.516Zm-1.776-.129a2.647,2.647,0,0,0-.32-1.472,1.081,1.081,0,0,0-.952-.464,1.171,1.171,0,0,0-1.167.694v2.624a1.187,1.187,0,0,0,1.18.7,1.1,1.1,0,0,0,1.13-.848A4.372,4.372,0,0,0,1083.782,1618.02Z" transform="translate(-1061.545 -1611.974)"/><path d="M1110.133,1613.553a.876.876,0,0,1,.267-.658,1.153,1.153,0,0,1,1.453,0,.939.939,0,0,1,0,1.321,1.139,1.139,0,0,1-1.444,0A.871.871,0,0,1,1110.133,1613.553Zm1.886,8.369h-1.782v-6.648h1.782Z" transform="translate(-1085.039 -1612.484)"/><path d="M1126.788,1621.412h-1.782v-9.438h1.782Z" transform="translate(-1096.471 -1611.974)"/><path d="M1141.292,1630.394a3.265,3.265,0,0,1-2.381-.9,3.189,3.189,0,0,1-.918-2.39v-.172a4.017,4.017,0,0,1,.387-1.791,2.84,2.84,0,0,1,1.1-1.217,3.079,3.079,0,0,1,1.619-.427,2.759,2.759,0,0,1,2.148.86,3.5,3.5,0,0,1,.783,2.439v.725h-4.234a1.65,1.65,0,0,0,.519,1.045,1.571,1.571,0,0,0,1.1.393,1.916,1.916,0,0,0,1.6-.744l.872.977a2.664,2.664,0,0,1-1.081.882A3.544,3.544,0,0,1,1141.292,1630.394Zm-.2-5.463a1.109,1.109,0,0,0-.857.358,1.852,1.852,0,0,0-.421,1.025h2.47v-.142a1.323,1.323,0,0,0-.319-.916A1.145,1.145,0,0,0,1141.089,1624.931Z" transform="translate(-1106.452 -1620.833)"/><path d="M1180.908,1620.228a2.053,2.053,0,0,1,.347-1.149,4.818,4.818,0,0,1,1.275-1.174,6.233,6.233,0,0,1-.627-1,2.221,2.221,0,0,1-.228-.98,2.287,2.287,0,0,1,.661-1.7,2.416,2.416,0,0,1,1.779-.654,2.321,2.321,0,0,1,1.644.6,1.946,1.946,0,0,1,.642,1.487,2.345,2.345,0,0,1-1.082,1.886l-.688.5,1.542,1.794a3.421,3.421,0,0,0,.363-1.573h1.511a4.615,4.615,0,0,1-.8,2.826l1.34,1.555h-2.016l-.461-.528a4.039,4.039,0,0,1-2.273.651,3.118,3.118,0,0,1-2.126-.7A2.316,2.316,0,0,1,1180.908,1620.228Zm3.011,1.1a2.254,2.254,0,0,0,1.21-.355l-1.764-2.035-.129.092a1.4,1.4,0,0,0-.547,1.1,1.161,1.161,0,0,0,.341.867A1.214,1.214,0,0,0,1183.919,1621.328Zm-.652-5.432a2.1,2.1,0,0,0,.541,1.161l.473-.313a1.6,1.6,0,0,0,.5-.455.978.978,0,0,0,.138-.528.733.733,0,0,0-.228-.535.873.873,0,0,0-1.2.019A.914.914,0,0,0,1183.267,1615.9Z" transform="translate(-1139.439 -1613.198)"/><path d="M1231.712,1623.044V1614.1h2.753a4.181,4.181,0,0,1,2.11.531,3.707,3.707,0,0,1,1.453,1.512,4.665,4.665,0,0,1,.522,2.228v.411a4.675,4.675,0,0,1-.513,2.218,3.677,3.677,0,0,1-1.447,1.505,4.211,4.211,0,0,1-2.107.541Zm1.843-7.453v5.972h.891a2,2,0,0,0,1.653-.707,3.194,3.194,0,0,0,.584-2.021v-.473a3.244,3.244,0,0,0-.565-2.068,1.994,1.994,0,0,0-1.653-.7Z" transform="translate(-1178.489 -1613.606)"/><path d="M1268.82,1630.394a3.264,3.264,0,0,1-2.381-.9,3.189,3.189,0,0,1-.918-2.39v-.172a4.013,4.013,0,0,1,.387-1.791,2.839,2.839,0,0,1,1.1-1.217,3.08,3.08,0,0,1,1.619-.427,2.759,2.759,0,0,1,2.148.86,3.5,3.5,0,0,1,.783,2.439v.725h-4.234a1.648,1.648,0,0,0,.519,1.045,1.57,1.57,0,0,0,1.1.393,1.917,1.917,0,0,0,1.6-.744l.872.977a2.664,2.664,0,0,1-1.081.882A3.545,3.545,0,0,1,1268.82,1630.394Zm-.2-5.463a1.109,1.109,0,0,0-.857.358,1.853,1.853,0,0,0-.421,1.025h2.47v-.142a1.321,1.321,0,0,0-.32-.916A1.144,1.144,0,0,0,1268.617,1624.931Z" transform="translate(-1204.475 -1620.833)"/><path d="M1298.433,1628.434a.573.573,0,0,0-.323-.513,3.676,3.676,0,0,0-1.035-.335q-2.372-.5-2.372-2.015a1.827,1.827,0,0,1,.734-1.478,2.962,2.962,0,0,1,1.92-.593,3.189,3.189,0,0,1,2.025.6,1.878,1.878,0,0,1,.759,1.548h-1.776a.86.86,0,0,0-.246-.63,1.04,1.04,0,0,0-.768-.249,1.062,1.062,0,0,0-.694.2.64.64,0,0,0-.246.516.547.547,0,0,0,.28.476,2.873,2.873,0,0,0,.943.313,7.712,7.712,0,0,1,1.119.3,1.837,1.837,0,0,1,1.407,1.788,1.734,1.734,0,0,1-.78,1.471,3.367,3.367,0,0,1-2.016.562,3.519,3.519,0,0,1-1.484-.3,2.489,2.489,0,0,1-1.017-.817,1.9,1.9,0,0,1-.369-1.121h1.684a.925.925,0,0,0,.35.725,1.388,1.388,0,0,0,.872.252,1.286,1.286,0,0,0,.771-.194A.6.6,0,0,0,1298.433,1628.434Z" transform="translate(-1226.745 -1620.833)"/><path d="M1326.334,1618.745l-.639.639v2.028h-1.776v-9.438h1.776v5.229l.344-.442,1.7-2h2.132l-2.4,2.771,2.611,3.877h-2.04Z" transform="translate(-1249.362 -1611.974)"/><path d="M1353.037,1616.966v1.635h1.137v1.3h-1.137v3.318a.791.791,0,0,0,.141.528.709.709,0,0,0,.54.16,2.8,2.8,0,0,0,.522-.043v1.346a3.65,3.65,0,0,1-1.075.16,1.7,1.7,0,0,1-1.905-1.886V1619.9h-.971v-1.3h.971v-1.635Z" transform="translate(-1269.632 -1615.811)"/><path d="M1369.358,1626.885a3.941,3.941,0,0,1,.381-1.763,2.789,2.789,0,0,1,1.1-1.2,3.2,3.2,0,0,1,1.662-.424,3.027,3.027,0,0,1,2.2.823,3.306,3.306,0,0,1,.949,2.237l.012.455a3.475,3.475,0,0,1-.854,2.455,3.31,3.31,0,0,1-4.587,0,3.537,3.537,0,0,1-.857-2.507Zm1.776.126a2.485,2.485,0,0,0,.356,1.449,1.28,1.28,0,0,0,2.028.006,2.721,2.721,0,0,0,.363-1.585,2.462,2.462,0,0,0-.363-1.44,1.179,1.179,0,0,0-1.02-.511,1.16,1.16,0,0,0-1.008.508A2.766,2.766,0,0,0,1371.134,1627.011Z" transform="translate(-1284.288 -1620.833)"/><path d="M1407.291,1627.008a3.986,3.986,0,0,1-.7,2.461,2.235,2.235,0,0,1-1.883.925,2.072,2.072,0,0,1-1.628-.7v3.134h-1.776v-9.2h1.647l.061.651a2.086,2.086,0,0,1,1.684-.774,2.251,2.251,0,0,1,1.911.909,4.1,4.1,0,0,1,.682,2.507Zm-1.776-.129a2.617,2.617,0,0,0-.329-1.432,1.071,1.071,0,0,0-.955-.5,1.163,1.163,0,0,0-1.149.639v2.722a1.182,1.182,0,0,0,1.161.658Q1405.515,1628.962,1405.515,1626.879Z" transform="translate(-1308.844 -1620.833)"/></g><g transform="translate(13.862 15.88)"><path d="M1062.343,1686.443v3.644h-.756v-8.946h3.047a3.214,3.214,0,0,1,2.2.713,2.8,2.8,0,0,1,.031,3.905,3.306,3.306,0,0,1-2.252.685Zm0-.639h2.292a2.419,2.419,0,0,0,1.677-.523,1.868,1.868,0,0,0,.578-1.458,1.953,1.953,0,0,0-.575-1.48,2.3,2.3,0,0,0-1.631-.563h-2.341Z" transform="translate(-1061.587 -1681.017)"/><path d="M1098.357,1686.357h-2.6v3.73H1095v-8.946h2.906a3.316,3.316,0,0,1,2.237.693,2.647,2.647,0,0,1,.3,3.455,2.576,2.576,0,0,1-1.352.908l2.237,3.809v.08h-.8Zm-2.6-.639h2.316a2.146,2.146,0,0,0,1.53-.542,2.045,2.045,0,0,0-.024-2.874,2.5,2.5,0,0,0-1.69-.523h-2.132Z" transform="translate(-1087.266 -1681.017)"/><path d="M1134.54,1685.8h-4.185v3.65h4.811v.639H1129.6v-8.946h5.536v.639h-4.781v3.379h4.185Z" transform="translate(-1113.864 -1681.017)"/><path d="M1163.642,1687.478a1.449,1.449,0,0,0-.522-1.177,5.521,5.521,0,0,0-1.911-.823,6.7,6.7,0,0,1-2.028-.851,2.064,2.064,0,0,1-.064-3.376,3.47,3.47,0,0,1,2.16-.642,3.582,3.582,0,0,1,1.594.344,2.607,2.607,0,0,1,1.091.959,2.516,2.516,0,0,1,.387,1.37h-.762a1.881,1.881,0,0,0-.626-1.476,2.441,2.441,0,0,0-1.684-.558,2.652,2.652,0,0,0-1.635.458,1.431,1.431,0,0,0-.608,1.2,1.354,1.354,0,0,0,.547,1.114,5.065,5.065,0,0,0,1.751.76,8.24,8.24,0,0,1,1.825.682,2.6,2.6,0,0,1,.934.845,2.114,2.114,0,0,1,.313,1.161,2.022,2.022,0,0,1-.845,1.7,3.6,3.6,0,0,1-2.227.639,4.366,4.366,0,0,1-1.736-.338,2.65,2.65,0,0,1-1.2-.946,2.44,2.44,0,0,1-.409-1.395h.756a1.786,1.786,0,0,0,.707,1.493,2.991,2.991,0,0,0,1.88.547,2.788,2.788,0,0,0,1.677-.461A1.441,1.441,0,0,0,1163.642,1687.478Z" transform="translate(-1135.685 -1680.608)"/><path d="M1197.692,1685.8h-4.184v3.65h4.811v.639h-5.567v-8.946h5.536v.639h-4.78v3.379h4.184Z" transform="translate(-1162.405 -1681.017)"/><path d="M1227.6,1681.779h-3.066v8.307h-.756v-8.307h-3.06v-.639h6.882Z" transform="translate(-1183.9 -1681.017)"/><path d="M1269.621,1686.443v3.644h-.756v-8.946h3.048a3.214,3.214,0,0,1,2.2.713,2.8,2.8,0,0,1,.031,3.905,3.306,3.306,0,0,1-2.252.685Zm0-.639h2.292a2.419,2.419,0,0,0,1.677-.523,1.868,1.868,0,0,0,.578-1.458,1.954,1.954,0,0,0-.574-1.48,2.3,2.3,0,0,0-1.631-.563h-2.341Z" transform="translate(-1220.908 -1681.017)"/><path d="M1300.375,1687.573h-4.061l-.922,2.513h-.793l3.386-8.946h.719l3.385,8.946h-.786Zm-3.828-.639h3.588l-1.794-4.873Z" transform="translate(-1240.688 -1681.017)"/><path d="M1337.617,1686.888a3.207,3.207,0,0,1-1.011,2.163,3.344,3.344,0,0,1-2.283.75,3.156,3.156,0,0,1-1.76-.5,3.245,3.245,0,0,1-1.183-1.41,5.023,5.023,0,0,1-.424-2.086v-1.161a5.068,5.068,0,0,1,.418-2.114,3.211,3.211,0,0,1,1.2-1.422,3.276,3.276,0,0,1,1.8-.5,3.2,3.2,0,0,1,2.271.774,3.245,3.245,0,0,1,.968,2.144h-.762a2.277,2.277,0,0,0-2.476-2.28,2.347,2.347,0,0,0-1.939.91,3.947,3.947,0,0,0-.722,2.515v1.095a3.974,3.974,0,0,0,.7,2.472,2.267,2.267,0,0,0,1.9.922,2.515,2.515,0,0,0,1.788-.568,2.726,2.726,0,0,0,.744-1.705Z" transform="translate(-1268.633 -1680.608)"/><path d="M1369.7,1685.644l-1.26,1.241v3.2h-.756v-8.946h.756v4.823l4.584-4.823h.952l-3.748,3.982,4.037,4.965h-.921Z" transform="translate(-1296.863 -1681.017)"/><path d="M1405.1,1687.478a1.448,1.448,0,0,0-.522-1.177,5.518,5.518,0,0,0-1.911-.823,6.7,6.7,0,0,1-2.028-.851,2.064,2.064,0,0,1-.065-3.376,3.471,3.471,0,0,1,2.16-.642,3.584,3.584,0,0,1,1.594.344,2.607,2.607,0,0,1,1.091.959,2.517,2.517,0,0,1,.387,1.37h-.762a1.88,1.88,0,0,0-.627-1.476,2.44,2.44,0,0,0-1.684-.558,2.652,2.652,0,0,0-1.635.458,1.431,1.431,0,0,0-.608,1.2,1.354,1.354,0,0,0,.547,1.114,5.065,5.065,0,0,0,1.751.76,8.247,8.247,0,0,1,1.825.682,2.607,2.607,0,0,1,.934.845,2.115,2.115,0,0,1,.313,1.161,2.022,2.022,0,0,1-.845,1.7,3.6,3.6,0,0,1-2.227.639,4.366,4.366,0,0,1-1.736-.338,2.65,2.65,0,0,1-1.2-.946,2.439,2.439,0,0,1-.409-1.395h.756a1.785,1.785,0,0,0,.707,1.493,2.99,2.99,0,0,0,1.88.547,2.787,2.787,0,0,0,1.677-.461A1.441,1.441,0,0,0,1405.1,1687.478Z" transform="translate(-1321.277 -1680.608)"/></g></g></g></svg>