<?xml version="1.0" encoding="utf-8"?>
<!-- Generator: Adobe Illustrator 24.3.0, SVG Export Plug-In . SVG Version: 6.00 Build 0)  -->
<svg version="1.1" id="Warstwa_1" xmlns="http://www.w3.org/2000/svg" xmlns:xlink="http://www.w3.org/1999/xlink" x="0px" y="0px"
	 viewBox="0 0 148.5 163.5" style="enable-background:new 0 0 148.5 163.5;" xml:space="preserve">
<style type="text/css">
	.st0{fill:#FFFFFF;}
	.st1{fill:none;stroke:#000000;}
	.st2{enable-background:new    ;}
	.st3{fill:#333333;}
	.st4{fill:#F36B7F;stroke:#000000;}
</style>
<g id="price_large" transform="translate(-845.5 -121)">
	<g id="Group_52" transform="translate(-123 1)">
		<g id="Ellipse_8" transform="translate(968.5 120)">
			<circle class="st0" cx="74" cy="74" r="74"/>
			<circle class="st1" cx="74" cy="74" r="73.5"/>
		</g>
		<g class="st2">
			<path class="st3" d="M1013.3,199h-19.5v-3.9l9.2-9.8c1.3-1.4,2.2-2.6,2.8-3.6s0.9-2,0.9-2.9c0-1.3-0.3-2.3-1-3
				c-0.6-0.7-1.5-1.1-2.7-1.1c-1.3,0-2.3,0.4-3,1.3c-0.7,0.9-1.1,2-1.1,3.5h-5.7c0-1.7,0.4-3.3,1.2-4.7c0.8-1.4,2-2.6,3.5-3.4
				c1.5-0.8,3.2-1.2,5.1-1.2c2.9,0,5.2,0.7,6.8,2.1s2.4,3.4,2.4,6c0,1.4-0.4,2.8-1.1,4.3c-0.7,1.5-2,3.2-3.8,5.1l-6.5,6.8h12.2V199z
				"/>
			<path class="st3" d="M1029.9,187.6c-1.5,1.4-3.2,2.2-5.2,2.2c-2.5,0-4.5-0.9-6-2.6c-1.5-1.7-2.3-4.1-2.3-7c0-1.9,0.4-3.6,1.2-5.1
				c0.8-1.6,1.9-2.8,3.4-3.6c1.5-0.9,3.1-1.3,4.9-1.3c1.9,0,3.5,0.5,5,1.4c1.5,0.9,2.6,2.3,3.4,4c0.8,1.8,1.2,3.8,1.2,6v2.1
				c0,4.7-1.2,8.5-3.5,11.2c-2.4,2.7-5.7,4.2-10,4.3l-1.4,0v-4.7l1.2,0C1026.9,194.3,1029.5,192,1029.9,187.6z M1026.2,185.5
				c0.9,0,1.7-0.2,2.4-0.7c0.7-0.5,1.2-1,1.5-1.7v-2.3c0-1.9-0.4-3.4-1.1-4.5c-0.7-1.1-1.7-1.6-2.9-1.6c-1.1,0-2.1,0.5-2.8,1.6
				c-0.7,1-1.1,2.3-1.1,3.9c0,1.5,0.4,2.8,1.1,3.8C1023.9,185,1024.9,185.5,1026.2,185.5z"/>
			<path class="st3" d="M1052.9,187.6c-1.5,1.4-3.2,2.2-5.2,2.2c-2.5,0-4.5-0.9-6-2.6c-1.5-1.7-2.3-4.1-2.3-7c0-1.9,0.4-3.6,1.2-5.1
				c0.8-1.6,1.9-2.8,3.4-3.6c1.5-0.9,3.1-1.3,4.9-1.3c1.9,0,3.5,0.5,5,1.4s2.6,2.3,3.4,4s1.2,3.8,1.2,6v2.1c0,4.7-1.2,8.5-3.5,11.2
				s-5.7,4.2-10,4.3l-1.4,0v-4.7l1.2,0C1049.8,194.3,1052.5,192,1052.9,187.6z M1049.1,185.5c0.9,0,1.7-0.2,2.4-0.7s1.2-1,1.5-1.7
				v-2.3c0-1.9-0.4-3.4-1.1-4.5s-1.7-1.6-2.9-1.6c-1.1,0-2.1,0.5-2.8,1.6s-1.1,2.3-1.1,3.9c0,1.5,0.4,2.8,1.1,3.8
				S1047.8,185.5,1049.1,185.5z"/>
		</g>
		<g class="st2">
			<path class="st3" d="M1062.8,189.8l-1.7-0.9l0.4-0.7c0.5-0.9,0.8-1.8,0.8-2.8v-2.6h2.8l0,2.3c0,0.8-0.2,1.7-0.6,2.6
				C1064,188.6,1063.5,189.3,1062.8,189.8z"/>
			<path class="st3" d="M1075.2,179c-0.9,0.8-1.9,1.3-3,1.3c-1.5,0-2.6-0.5-3.5-1.5c-0.9-1-1.3-2.4-1.3-4.1c0-1.1,0.2-2.1,0.7-3
				c0.5-0.9,1.1-1.6,2-2.1s1.8-0.8,2.9-0.8c1.1,0,2.1,0.3,2.9,0.8s1.5,1.3,2,2.4c0.5,1,0.7,2.2,0.7,3.5v1.2c0,2.8-0.7,4.9-2.1,6.5
				s-3.3,2.4-5.8,2.5l-0.8,0v-2.7l0.7,0C1073.4,182.9,1075,181.6,1075.2,179z M1073,177.8c0.5,0,1-0.1,1.4-0.4
				c0.4-0.3,0.7-0.6,0.9-1V175c0-1.1-0.2-2-0.6-2.6c-0.4-0.6-1-0.9-1.7-0.9c-0.7,0-1.2,0.3-1.6,0.9c-0.4,0.6-0.6,1.4-0.6,2.3
				c0,0.9,0.2,1.6,0.6,2.2S1072.3,177.8,1073,177.8z"/>
			<path class="st3" d="M1088.6,179c-0.9,0.8-1.9,1.3-3,1.3c-1.5,0-2.6-0.5-3.5-1.5c-0.9-1-1.3-2.4-1.3-4.1c0-1.1,0.2-2.1,0.7-3
				c0.5-0.9,1.1-1.6,2-2.1s1.8-0.8,2.9-0.8c1.1,0,2.1,0.3,2.9,0.8s1.5,1.3,2,2.4s0.7,2.2,0.7,3.5v1.2c0,2.8-0.7,4.9-2.1,6.5
				c-1.4,1.6-3.3,2.4-5.8,2.5l-0.8,0v-2.7l0.7,0C1086.8,182.9,1088.4,181.6,1088.6,179z M1086.4,177.8c0.5,0,1-0.1,1.4-0.4
				s0.7-0.6,0.9-1V175c0-1.1-0.2-2-0.6-2.6c-0.4-0.6-1-0.9-1.7-0.9c-0.7,0-1.2,0.3-1.6,0.9c-0.4,0.6-0.6,1.4-0.6,2.3
				c0,0.9,0.2,1.6,0.6,2.2C1085.1,177.5,1085.7,177.8,1086.4,177.8z"/>
		</g>
		<g class="st2">
			<path class="st3" d="M1030.3,218.5v4.5h-1.5v-11.4h4.2c1.2,0,2.2,0.3,2.9,1c0.7,0.6,1.1,1.5,1.1,2.5c0,1.1-0.3,2-1,2.6
				c-0.7,0.6-1.7,0.9-3,0.9H1030.3z M1030.3,217.3h2.7c0.8,0,1.4-0.2,1.8-0.6c0.4-0.4,0.6-0.9,0.6-1.6c0-0.7-0.2-1.2-0.6-1.6
				c-0.4-0.4-1-0.6-1.8-0.6h-2.8V217.3z"/>
			<path class="st3" d="M1040.4,221.8h5.4v1.2h-6.9v-11.4h1.5V221.8z"/>
			<path class="st3" d="M1056.2,223h-1.5l-5.7-8.8v8.8h-1.5v-11.4h1.5l5.7,8.8v-8.8h1.5V223z"/>
		</g>
	</g>
	<g id="Group_55" transform="translate(377 113)">
		<path id="Rectangle" class="st4" d="M477.5,141h131c4.4,0,8,3.6,8,8v14c0,4.4-3.6,8-8,8h-131c-4.4,0-8-3.6-8-8v-14
			C469.5,144.6,473.1,141,477.5,141z"/>
		<g class="st2">
			<path class="st3" d="M503.1,162h-2.3v-8.7l-2.7,0.8v-1.8l4.7-1.7h0.2V162z"/>
			<path class="st3" d="M513,150.5v1.9h-0.2c-1,0-1.8,0.3-2.5,0.8c-0.6,0.5-1,1.2-1.1,2.1c0.6-0.6,1.4-0.9,2.3-0.9
				c1,0,1.8,0.4,2.4,1.1c0.6,0.7,0.9,1.6,0.9,2.8c0,0.7-0.2,1.4-0.5,2s-0.8,1.1-1.4,1.4s-1.2,0.5-2,0.5c-1.2,0-2.2-0.4-2.9-1.2
				c-0.7-0.8-1.1-1.9-1.1-3.3v-0.8c0-1.2,0.2-2.3,0.7-3.3c0.5-0.9,1.1-1.7,2-2.2c0.9-0.5,1.9-0.8,3-0.8H513z M510.8,156.2
				c-0.4,0-0.7,0.1-1,0.3c-0.3,0.2-0.5,0.4-0.7,0.8v0.7c0,0.8,0.1,1.3,0.4,1.8c0.3,0.4,0.7,0.6,1.2,0.6c0.5,0,0.9-0.2,1.2-0.6
				c0.3-0.4,0.4-0.9,0.4-1.5c0-0.6-0.2-1.1-0.5-1.5C511.7,156.4,511.3,156.2,510.8,156.2z"/>
			<path class="st3" d="M523.4,153.6c0,0.6-0.1,1-0.4,1.5c-0.3,0.4-0.7,0.8-1.1,1c0.6,0.3,1,0.6,1.3,1.1c0.3,0.5,0.5,1,0.5,1.6
				c0,1-0.3,1.8-1,2.4s-1.6,0.9-2.8,0.9c-1.2,0-2.1-0.3-2.8-0.9c-0.7-0.6-1-1.4-1-2.4c0-0.6,0.2-1.2,0.5-1.6
				c0.3-0.5,0.8-0.8,1.3-1.1c-0.5-0.3-0.9-0.6-1.1-1s-0.4-0.9-0.4-1.5c0-1,0.3-1.7,1-2.3c0.6-0.6,1.5-0.9,2.6-0.9
				c1.1,0,2,0.3,2.6,0.9S523.4,152.7,523.4,153.6z M521.4,158.7c0-0.5-0.1-0.9-0.4-1.2c-0.3-0.3-0.7-0.4-1.2-0.4
				c-0.5,0-0.9,0.1-1.1,0.4c-0.3,0.3-0.4,0.7-0.4,1.2c0,0.5,0.1,0.9,0.4,1.2s0.7,0.4,1.2,0.4c0.5,0,0.9-0.1,1.2-0.4
				C521.3,159.6,521.4,159.2,521.4,158.7z M521.2,153.8c0-0.4-0.1-0.8-0.4-1.1s-0.6-0.4-1-0.4c-0.4,0-0.8,0.1-1,0.4
				s-0.4,0.6-0.4,1.1c0,0.5,0.1,0.8,0.4,1.1s0.6,0.4,1,0.4c0.4,0,0.8-0.1,1-0.4C521,154.6,521.2,154.2,521.2,153.8z"/>
			<path class="st3" d="M531.9,157.7h1.3v1.8h-1.3v2.5h-2.3v-2.5h-4.7l-0.1-1.4l4.7-7.5h2.3V157.7z M527.1,157.7h2.5v-4l-0.1,0.3
				L527.1,157.7z"/>
			<path class="st3" d="M535,164.9l-1.2-0.6l0.3-0.5c0.3-0.6,0.5-1.3,0.5-1.9v-1.8h1.9l0,1.6c0,0.6-0.2,1.2-0.4,1.8
				C535.9,164,535.5,164.5,535,164.9z"/>
			<path class="st3" d="M545.9,157.3c0,1.6-0.3,2.8-1,3.6c-0.7,0.8-1.6,1.2-2.9,1.2c-1.2,0-2.2-0.4-2.8-1.2s-1-2-1-3.5v-2.1
				c0-1.6,0.3-2.8,1-3.6c0.7-0.8,1.6-1.2,2.8-1.2c1.2,0,2.2,0.4,2.8,1.2s1,2,1,3.5V157.3z M543.7,155c0-0.9-0.1-1.6-0.4-2.1
				c-0.3-0.4-0.7-0.6-1.2-0.6c-0.5,0-0.9,0.2-1.2,0.6c-0.3,0.4-0.4,1-0.4,1.9v2.8c0,0.9,0.1,1.6,0.4,2.1c0.3,0.5,0.7,0.7,1.2,0.7
				c0.6,0,1-0.2,1.2-0.6c0.2-0.4,0.4-1.1,0.4-2V155z"/>
			<path class="st3" d="M555.1,157.3c0,1.6-0.3,2.8-1,3.6c-0.7,0.8-1.6,1.2-2.9,1.2c-1.2,0-2.2-0.4-2.8-1.2s-1-2-1-3.5v-2.1
				c0-1.6,0.3-2.8,1-3.6c0.7-0.8,1.6-1.2,2.8-1.2c1.2,0,2.2,0.4,2.8,1.2s1,2,1,3.5V157.3z M552.9,155c0-0.9-0.1-1.6-0.4-2.1
				c-0.3-0.4-0.7-0.6-1.2-0.6c-0.5,0-0.9,0.2-1.2,0.6c-0.3,0.4-0.4,1-0.4,1.9v2.8c0,0.9,0.1,1.6,0.4,2.1c0.3,0.5,0.7,0.7,1.2,0.7
				c0.6,0,1-0.2,1.2-0.6c0.2-0.4,0.4-1.1,0.4-2V155z"/>
			<path class="st3" d="M563.2,158v4h-2.3v-11.4h4.4c0.9,0,1.6,0.2,2.3,0.5s1.1,0.8,1.5,1.3c0.3,0.6,0.5,1.2,0.5,2
				c0,1.1-0.4,2-1.1,2.6c-0.8,0.6-1.8,1-3.2,1H563.2z M563.2,156.1h2.1c0.6,0,1.1-0.1,1.4-0.4c0.3-0.3,0.5-0.7,0.5-1.2
				c0-0.6-0.2-1-0.5-1.4s-0.8-0.5-1.4-0.5h-2.1V156.1z"/>
			<path class="st3" d="M573.5,160.1h5v1.9h-7.3v-11.4h2.3V160.1z"/>
			<path class="st3" d="M589.1,162h-2.3l-4.6-7.5v7.5h-2.3v-11.4h2.3l4.6,7.5v-7.5h2.3V162z"/>
			<path class="st3" d="M496.9,158.2v-0.8h93.2v0.8H496.9z"/>
		</g>
	</g>
</g>
</svg>
